<svg height="436pt" viewBox="0 -13 436.90667 436" width="436pt" xmlns="http://www.w3.org/2000/svg"><g fill="#0e65e5"><path d="m204.800781 7.28125h54.613281l61.4375 157.011719h-95.570312zm0 0"/><path d="m320.851562 171.121094h-95.570312c-3.429688 0-6.328125-2.546875-6.769531-5.945313l-20.480469-157.015625c-.257812-1.945312.339844-3.90625 1.640625-5.386718 1.296875-1.472657 3.160156-2.320313 5.128906-2.320313h54.613281c2.8125 0 5.332032 1.71875 6.359376 4.339844l61.441406 157.015625c.820312 2.097656.550781 4.472656-.722656 6.332031-1.273438 1.867187-3.386719 2.980469-5.640626 2.980469zm-89.578124-13.65625h79.582031l-56.101563-143.359375h-42.179687zm0 0"/><path d="m204.800781 403.226562h54.613281l61.4375-157.011718h-95.570312zm0 0"/><path d="m259.414062 410.054688h-54.613281c-1.96875 0-3.832031-.847657-5.128906-2.320313-1.300781-1.480469-1.898437-3.441406-1.640625-5.386719l20.480469-157.011718c.441406-3.402344 3.339843-5.949219 6.769531-5.949219h95.570312c2.253907 0 4.367188 1.113281 5.640626 2.980469 1.273437 1.859374 1.542968 4.234374.722656 6.335937l-61.441406 157.011719c-1.027344 2.617187-3.546876 4.339844-6.359376 4.339844zm-46.839843-13.65625h42.179687l56.101563-143.359376h-79.582031zm0 0"/></g><path d="m225.28125 7.28125h54.613281l61.4375 157.011719h-95.570312zm0 0" fill="#5c9eff"/><path d="m341.332031 171.121094h-95.570312c-3.429688 0-6.328125-2.546875-6.769531-5.945313l-20.480469-157.015625c-.257813-1.945312.339843-3.90625 1.640625-5.386718 1.292968-1.472657 3.160156-2.320313 5.128906-2.320313h54.613281c2.8125 0 5.332031 1.71875 6.359375 4.339844l61.441406 157.015625c.816407 2.097656.550782 4.472656-.722656 6.332031-1.273437 1.867187-3.386718 2.980469-5.640625 2.980469zm-89.578125-13.65625h79.578125l-56.097656-143.359375h-42.179687zm0 0" fill="#0e65e5"/><path d="m225.28125 403.226562h54.613281l61.4375-157.011718h-95.570312zm0 0" fill="#5c9eff"/><path d="m279.894531 410.054688h-54.613281c-1.96875 0-3.835938-.847657-5.128906-2.320313-1.300782-1.480469-1.898438-3.441406-1.640625-5.386719l20.480469-157.011718c.441406-3.402344 3.339843-5.949219 6.769531-5.949219h95.570312c2.253907 0 4.367188 1.113281 5.640625 2.980469 1.273438 1.859374 1.539063 4.234374.722656 6.335937l-61.441406 157.011719c-1.027344 2.617187-3.546875 4.339844-6.359375 4.339844zm-46.839843-13.65625h42.179687l56.097656-143.359376h-79.578125zm0 0" fill="#0e65e5"/><path d="m382.292969 253.039062h-348.160157v-95.574218h348.160157c26.390625 0 47.785156 21.398437 47.785156 47.789062s-21.394531 47.785156-47.785156 47.785156zm0 0" fill="#94c1ff"/><path d="m382.292969 259.867188h-348.160157c-3.773437 0-6.824218-3.054688-6.824218-6.828126v-95.574218c0-3.773438 3.050781-6.824219 6.824218-6.824219h348.160157c30.113281 0 54.613281 24.5 54.613281 54.613281 0 30.113282-24.5 54.613282-54.613281 54.613282zm-341.332031-13.652344h341.332031c22.585937 0 40.960937-18.375 40.960937-40.960938 0-22.585937-18.375-40.960937-40.960937-40.960937h-341.332031zm0 0" fill="#0e65e5"/><path d="m95.574219 212.078125h-88.746094c-3.773437 0-6.828125-3.050781-6.828125-6.824219 0-3.773437 3.054688-6.828125 6.828125-6.828125h88.746094c3.773437 0 6.824219 3.054688 6.824219 6.828125 0 3.773438-3.050782 6.824219-6.824219 6.824219zm0 0" fill="#0e65e5"/><path d="m47.785156 321.308594h40.960938l27.308594-95.574219h-54.613282zm0 0" fill="#5c9eff"/><path d="m88.746094 328.132812h-40.960938c-1.976562 0-3.859375-.859374-5.15625-2.351562-1.296875-1.496094-1.882812-3.480469-1.601562-5.441406l13.652344-95.574219c.480468-3.359375 3.359374-5.859375 6.761718-5.859375h54.613282c2.140624 0 4.160156 1.007812 5.453124 2.714844 1.285157 1.710937 1.699219 3.925781 1.109376 5.984375l-27.304688 95.574219c-.839844 2.933593-3.519531 4.953124-6.566406 4.953124zm-33.085938-13.652343h27.9375l23.402344-81.921875h-39.640625zm0 0" fill="#0e65e5"/><path d="m47.785156 89.199219h40.960938l27.308594 95.574219h-54.613282zm0 0" fill="#5c9eff"/><path d="m116.054688 191.601562h-54.613282c-3.402344 0-6.28125-2.5-6.761718-5.863281l-13.652344-95.574219c-.28125-1.957031.304687-3.945312 1.601562-5.4375 1.296875-1.492187 3.179688-2.351562 5.15625-2.351562h40.960938c3.046875 0 5.726562 2.019531 6.566406 4.949219l27.308594 95.574219c.585937 2.0625.171875 4.273437-1.113282 5.988281-1.292968 1.707031-3.3125 2.714843-5.453124 2.714843zm-48.695313-13.65625h39.640625l-23.402344-81.917968h-27.9375zm0 0" fill="#0e65e5"/><path d="m375.464844 232.558594c15.082031 0 27.308594-12.222656 27.308594-27.304688 0-15.082031-12.226563-27.308594-27.308594-27.308594zm0 0" fill="#d7e9ff"/><path d="m375.464844 239.386719c-3.773438 0-6.824219-3.054688-6.824219-6.828125v-54.613282c0-3.773437 3.050781-6.824218 6.824219-6.824218 18.820312 0 34.136718 15.3125 34.136718 34.132812 0 18.820313-15.316406 34.132813-34.136718 34.132813zm6.828125-53.445313v38.625c7.945312-2.816406 13.652343-10.414062 13.652343-19.3125 0-8.898437-5.707031-16.492187-13.652343-19.3125zm0 0" fill="#0e65e5"/><path d="m238.933594 382.746094c-3.773438 0-6.828125-3.050782-6.828125-6.824219v-27.308594c0-3.773437 3.054687-6.828125 6.828125-6.828125 3.773437 0 6.828125 3.054688 6.828125 6.828125v27.308594c0 3.773437-3.054688 6.824219-6.828125 6.824219zm0 0" fill="#fff"/><path d="m252.585938 369.09375h-27.304688c-3.773438 0-6.828125-3.054688-6.828125-6.828125s3.054687-6.824219 6.828125-6.824219h27.304688c3.773437 0 6.828124 3.050782 6.828124 6.824219s-3.054687 6.828125-6.828124 6.828125zm0 0" fill="#fff"/><path d="m348.160156 184.773438h-61.441406c-3.773438 0-6.824219-3.054688-6.824219-6.828126 0-3.773437 3.050781-6.824218 6.824219-6.824218h61.441406c3.773438 0 6.828125 3.050781 6.828125 6.824218 0 3.773438-3.054687 6.828126-6.828125 6.828126zm0 0" fill="#fff"/></svg>